<?xml version="1.0" encoding="iso-8859-1"?>
<!-- Generator: Adobe Illustrator 16.0.0, SVG Export Plug-In . SVG Version: 6.00 Build 0)  -->
<!DOCTYPE svg PUBLIC "-//W3C//DTD SVG 1.1//EN" "http://www.w3.org/Graphics/SVG/1.1/DTD/svg11.dtd">
<svg version="1.1" id="Capa_1" xmlns="http://www.w3.org/2000/svg" xmlns:xlink="http://www.w3.org/1999/xlink" x="0px" y="0px"
	 width="792px" height="792px" viewBox="0 0 792 792" style="enable-background:new 0 0 792 792;" xml:space="preserve">
<g>
	<g>
		<g>
			<path d="M686.524,658.23H105.476L121,632.985c61.372-99.805,62.127-347.94,62.127-350.433
				c0-112.181,88.426-204.086,199.229-209.692V16.565c0-9.15,7.415-16.565,16.565-16.565s16.564,7.415,16.564,16.565v56.68
				c108.061,8.475,193.405,99.114,193.405,209.314c0,2.491,0.755,250.628,62.113,350.432L686.524,658.23z M162.5,625.1h467.012
				c-53.103-117.084-53.751-332.732-53.751-342.54c0-97.504-79.329-176.833-176.84-176.833h-5.837
				c-97.504,0-176.826,79.329-176.826,176.833C216.251,292.367,215.603,508.016,162.5,625.1z"/>
			<path d="M396,792c-49.504,0-89.785-40.28-89.785-89.791c0-9.151,7.415-16.565,16.565-16.565c9.15,0,16.565,7.414,16.565,16.565
				c0,31.242,25.412,56.66,56.654,56.66c31.235,0,56.653-25.418,56.653-56.66c0-9.151,7.415-16.565,16.565-16.565
				s16.564,7.414,16.564,16.565C485.784,751.72,445.504,792,396,792z"/>
		</g>
	</g>
</g>
<g>
</g>
<g>
</g>
<g>
</g>
<g>
</g>
<g>
</g>
<g>
</g>
<g>
</g>
<g>
</g>
<g>
</g>
<g>
</g>
<g>
</g>
<g>
</g>
<g>
</g>
<g>
</g>
<g>
</g>
</svg>
