<svg width="16" height="16" viewBox="0 0 16 16" fill="none" xmlns="http://www.w3.org/2000/svg">
<path d="M11.7021 10.3248C11.5337 10.1559 11.305 10.061 11.0664 10.061H10.8121C10.7448 10.061 10.6801 10.0351 10.6314 9.9887C10.5304 9.89252 10.523 9.73445 10.6093 9.62493C11.406 8.61449 11.8902 7.3259 11.8902 5.95122C11.8902 2.65854 9.23171 0 5.95122 0C2.67073 0 0 2.65854 0 5.95122C0 9.2439 2.65854 11.9024 5.95122 11.9024C7.33759 11.9024 8.61631 11.4288 9.62557 10.6231C9.73458 10.5361 9.89285 10.543 9.98904 10.644C10.0352 10.6925 10.061 10.7569 10.061 10.8238V11.0726C10.061 11.3072 10.1543 11.5321 10.3204 11.6977L13.9503 15.318C14.3281 15.6948 14.9398 15.6944 15.3171 15.3171C15.6944 14.9398 15.6948 14.3281 15.318 13.9503L11.7021 10.3248ZM5.95122 10.061C3.67073 10.061 1.82927 8.21951 1.82927 5.93902C1.82927 3.65854 3.67073 1.82927 5.95122 1.82927C8.23171 1.82927 10.0732 3.67073 10.0732 5.95122C10.0732 8.23171 8.21951 10.061 5.95122 10.061Z" fill="#809198"/>
</svg>
